<svg xmlns="http://www.w3.org/2000/svg" xmlns:xlink="http://www.w3.org/1999/xlink" viewBox="0 0 1366.5 768"><defs><style>.cls-1{fill:#fff;}.cls-2{fill:url(#Nepojmenovaný_přechod_35);}.cls-3{fill:url(#Nepojmenovaný_přechod_66);}.cls-4{fill:url(#Nepojmenovaný_přechod_35-2);}.cls-5{fill:url(#Nepojmenovaný_přechod_66-2);}</style><linearGradient id="Nepojmenovaný_přechod_35" x1="1045.4" y1="111.77" x2="105.96" y2="610.07" gradientUnits="userSpaceOnUse"><stop offset="0" stop-color="#15c7ff"/><stop offset="1" stop-color="#6affd3"/></linearGradient><linearGradient id="Nepojmenovaný_přechod_66" x1="84.18" y1="368.98" x2="-39.44" y2="434.55" gradientUnits="userSpaceOnUse"><stop offset="0" stop-color="#2ac0ff"/><stop offset="1" stop-color="#6affd3" stop-opacity="0"/></linearGradient><linearGradient id="Nepojmenovaný_přechod_35-2" x1="944.23" y1="-78.98" x2="4.79" y2="419.32" xlink:href="#Nepojmenovaný_přechod_35"/><linearGradient id="Nepojmenovaný_přechod_66-2" x1="87.58" y1="375.41" x2="-36.03" y2="440.97" xlink:href="#Nepojmenovaný_přechod_66"/></defs><title>Vrstva 1</title><g id="Vrstva_2" data-name="Vrstva 2"><g id="Vrstva_1-2" data-name="Vrstva 1"><path class="cls-1" d="M1026.5,106.68c292,0,340,136.15,340,136.15V0H723.05C766.83,48.28,855.19,106.68,1026.5,106.68Z"/><path class="cls-1" d="M154.66,654c26-2.49,50.77-11.92,75.51-20.33,80.06-27.22,155.43-33.83,235.54-3.6,16.37,6.17,33,13.54,50.44,13,29.57-.86,55-21.76,83.49-27.83,33.51-7.12,68.15-10.32,102.37-7.85,24.32,1.76,50.13,5.56,73.46,12.89,22.45,7.06,42.4,22.67,66.75,22.94,21.16.24,39.81-11.13,59.25-17.79,22-7.55,45.5-12.45,68.55-15.6,46-6.3,93.8-3.84,137.27,13.42,19.92,7.9,39.5,18.94,60.92,19,12.82.06,25.29-3.86,37.45-7.93,44.4-14.87,86.07-28.34,132.69-28.39q5.07,0,10.23.2c6,.25,12,.69,17.92,1.27V242.83s-48-136.15-340-136.15C855.19,106.68,766.83,48.28,723.05,0H.5V289a124.49,124.49,0,0,1,0,249v72.3a243.43,243.43,0,0,1,51.65,12.85C87.2,636.14,115.28,657.77,154.66,654Z"/><path class="cls-2" d="M154.66,654c26-2.49,50.77-11.92,75.51-20.33,80.06-27.22,155.43-33.83,235.54-3.6,16.37,6.17,33,13.54,50.44,13,29.57-.86,55-21.76,83.49-27.83,33.51-7.12,68.15-10.32,102.37-7.85,24.32,1.76,50.13,5.56,73.46,12.89,22.45,7.06,42.4,22.67,66.75,22.94,21.16.24,39.81-11.13,59.25-17.79,22-7.55,45.5-12.45,68.55-15.6,46-6.3,93.8-3.84,137.27,13.42,19.92,7.9,39.5,18.94,60.92,19,12.82.06,25.29-3.86,37.45-7.93,44.4-14.87,86.07-28.34,132.69-28.39q5.07,0,10.23.2c6,.25,12,.69,17.92,1.27V242.83s-48-136.15-340-136.15C855.19,106.68,766.83,48.28,723.05,0H.5V289a124.49,124.49,0,0,1,0,249v72.3a243.43,243.43,0,0,1,51.65,12.85C87.2,636.14,115.28,657.77,154.66,654Z"/><path class="cls-3" d="M0,289V538H.5V289Z"/><path class="cls-1" d="M124.5,413.5A124.49,124.49,0,0,0,.5,289V538A124.49,124.49,0,0,0,124.5,413.5Z"/><path class="cls-4" d="M124.5,413.5A124.49,124.49,0,0,0,.5,289V538A124.49,124.49,0,0,0,124.5,413.5Z"/><path class="cls-5" d="M124.5,413.5A124.49,124.49,0,0,0,.5,289V538A124.49,124.49,0,0,0,124.5,413.5Z"/><path class="cls-1" d="M1184.19,665.75c-48.79,7.38-85.68-25.17-131.53-31.41-53.2-7.23-107.75-1.82-157.8,17.8-18.62,7.3-37.41,16.58-57.43,15.73-16.15-.69-31.13-7.94-46.11-14-79.23-31.75-171.66-29.87-249.49,5.08-10.72,4.82-21.57,10.33-33.33,10.85-14.71.65-28.42-6.54-41.81-12.57a302.68,302.68,0,0,0-201.09-16c-28.33,7.66-55.91,19.55-85.24,21.21C118.17,666,62.32,636.05.5,632.45V768h1366V632.31q-13-1.17-26.09-1.3C1282.1,630.49,1239.18,657.45,1184.19,665.75Z"/><path class="cls-1" d="M180.36,662.51c29.33-1.66,56.91-13.55,85.24-21.21a302.68,302.68,0,0,1,201.09,16c13.39,6,27.1,13.22,41.81,12.57,11.76-.52,22.61-6,33.33-10.85,77.83-35,170.26-36.83,249.49-5.08,15,6,30,13.26,46.11,14,20,.85,38.81-8.43,57.43-15.73,50-19.62,104.6-25,157.8-17.8,45.85,6.24,82.74,38.79,131.53,31.41,55-8.3,97.91-35.26,156.22-34.74q13.11.12,26.09,1.3V607.47c-5.94-.58-11.91-1-17.92-1.27q-5.16-.21-10.23-.2c-46.62,0-88.29,13.52-132.69,28.39-12.16,4.07-24.63,8-37.45,7.93-21.42-.09-41-11.13-60.92-19C1063.82,606,1016,603.57,970,609.87c-23,3.15-46.51,8-68.55,15.6-19.44,6.66-38.09,18-59.25,17.79-24.35-.27-44.3-15.88-66.75-22.94C752.14,613,726.33,609.19,702,607.43c-34.22-2.47-68.86.73-102.37,7.85-28.54,6.07-53.92,27-83.49,27.83-17.48.5-34.07-6.87-50.44-13-80.11-30.23-155.48-23.62-235.54,3.6-24.74,8.41-49.5,17.84-75.51,20.33-39.38,3.77-67.46-17.86-102.51-30.86A243.43,243.43,0,0,0,.5,610.29v22.16C62.32,636.05,118.17,666,180.36,662.51Z"/></g></g></svg>