<svg xmlns="http://www.w3.org/2000/svg" xmlns:xlink="http://www.w3.org/1999/xlink" viewBox="0 0 1366.5 768"><defs><style>.cls-1{fill:#fff;}.cls-2{fill:url(#Nepojmenovaný_přechod_35);}.cls-3{fill:url(#Nepojmenovaný_přechod_66);}</style><linearGradient id="Nepojmenovaný_přechod_35" x1="1050.55" y1="121.47" x2="111.1" y2="619.77" gradientUnits="userSpaceOnUse"><stop offset="0" stop-color="#15c7ff"/><stop offset="1" stop-color="#6affd3"/></linearGradient><linearGradient id="Nepojmenovaný_přechod_66" x1="87.53" y1="421.3" x2="-36.08" y2="486.87" gradientUnits="userSpaceOnUse"><stop offset="0" stop-color="#2ac0ff"/><stop offset="1" stop-color="#6affd3" stop-opacity="0"/></linearGradient></defs><title>final-background</title><g id="Vrstva_2" data-name="Vrstva 2"><g id="Vrstva_1-2" data-name="Vrstva 1"><rect class="cls-1" x="0.5" width="1366" height="768"/><path class="cls-2" d="M1026.5,106.68C855.19,106.68,766.83,48.28,723.05,0H.5V632.45c61.82,3.6,117.67,33.58,179.86,30.06,29.33-1.66,56.91-13.55,85.24-21.21a302.68,302.68,0,0,1,201.09,16c13.39,6,27.1,13.22,41.81,12.57,11.76-.52,22.61-6,33.33-10.85,77.83-35,170.26-36.83,249.49-5.08,15,6,30,13.26,46.11,14,20,.85,38.81-8.43,57.43-15.73,50-19.62,104.6-25,157.8-17.8,45.85,6.24,82.74,38.79,131.53,31.41,55-8.3,97.91-35.26,156.22-34.74q13.11.12,26.09,1.3V242.83S1318.5,106.68,1026.5,106.68Z"/><path class="cls-3" d="M0,335A124.5,124.5,0,0,1,0,584"/></g></g></svg>